<svg width="25" height="25" viewBox="0 0 25 25" fill="none" xmlns="http://www.w3.org/2000/svg">
<g clip-path="url(#clip0_53_119)">
<path fill-rule="evenodd" clip-rule="evenodd" d="M0.377197 8.56298V24.1822C0.377197 24.3475 0.512459 24.4844 0.679109 24.4844H17.8004C17.967 24.4844 18.1023 24.3475 18.1023 24.1822V22.3661L2.71975 2.11832H0.679109C0.512509 2.11832 0.377197 2.25373 0.377197 2.42053V8.56298Z" fill="#524E4E"/>
<path fill-rule="evenodd" clip-rule="evenodd" d="M2.71973 2.11831V22.0639C2.71973 22.2292 2.85499 22.3661 3.02164 22.3661H7.82496H18.1023H20.1444C20.3096 22.3661 20.4463 22.2292 20.4463 22.0639C20.4463 11.6991 20.4463 15.0461 20.4463 3.75478L20.4449 3.56806C20.4449 3.53954 20.4421 3.51957 20.4321 3.49965H17.9898C17.322 3.49965 16.7766 2.95367 16.7766 2.28657L16.7794 0.0157445C16.7551 0.00427565 16.7324 0 16.701 0H16.4746H3.02164C2.85504 0 2.71973 0.135412 2.71973 0.302213V2.11831Z" fill="#F9F7F7"/>
<path fill-rule="evenodd" clip-rule="evenodd" d="M13.4456 0C15.7611 2.38913 17.2692 6.2836 17.2692 10.6827C17.2692 11.6364 17.198 12.5658 17.0641 13.461C17.0214 13.7489 16.9716 14.0326 16.9146 14.312C16.8476 14.6498 16.7708 14.982 16.6853 15.3084C15.885 18.3619 14.3143 20.875 12.3135 22.3661H18.1022H20.1443C20.3095 22.3661 20.4462 22.2292 20.4462 22.0639V18.6812V14.2037V3.75478L20.4448 3.56806C20.4448 3.53954 20.4419 3.51957 20.432 3.49965L16.7793 0.0157445C16.7551 0.00427565 16.7323 0 16.701 0H16.4746L13.4456 0Z" fill="#E2E2E2"/>
<path fill-rule="evenodd" clip-rule="evenodd" d="M16.7792 0.015686L16.7764 2.28651C16.7764 2.95366 17.3218 3.49959 17.9896 3.49959H20.4319C20.412 3.4597 20.3649 3.42404 20.2739 3.33566L16.9744 0.185304C16.8718 0.0869637 16.8248 0.0384728 16.7792 0.015686Z" fill="#CECECE"/>
<path d="M17.9386 11.9167H5.67609C5.46774 11.9167 5.29883 11.7478 5.29883 11.5394C5.29883 11.3311 5.46774 11.1622 5.67609 11.1622H17.9386C18.1469 11.1622 18.3158 11.3311 18.3158 11.5394C18.3158 11.7478 18.1469 11.9167 17.9386 11.9167Z" fill="#595959"/>
<path d="M17.9386 9.56037H5.67609C5.46774 9.56037 5.29883 9.39146 5.29883 9.18311C5.29883 8.97476 5.46774 8.80585 5.67609 8.80585H17.9386C18.1469 8.80585 18.3158 8.97476 18.3158 9.18311C18.3158 9.39146 18.1469 9.56037 17.9386 9.56037Z" fill="#595959"/>
<path d="M6.87935 6.67937C6.32598 6.67937 5.86386 6.40729 5.5781 5.91307C5.20767 5.27238 5.20843 4.34009 5.57986 3.69627C5.86658 3.19929 6.3286 2.9256 6.88086 2.9256H7.53026C7.73861 2.9256 7.90752 3.09451 7.90752 3.30286C7.90752 3.51121 7.73861 3.68013 7.53026 3.68013H6.88086C6.60179 3.68013 6.38393 3.81242 6.23338 4.07333C5.99605 4.4847 5.99515 5.12691 6.23126 5.53541C6.38066 5.79381 6.59882 5.92484 6.87966 5.92484H6.88046H7.66688C7.87523 5.92484 8.04414 6.09376 8.04414 6.30211C8.04414 6.51046 7.87523 6.67937 7.66688 6.67937H6.88081C6.88041 6.67937 6.87981 6.67937 6.87935 6.67937Z" fill="#595959"/>
<path d="M9.8618 6.68017C9.86034 6.68017 9.85883 6.68017 9.85737 6.68017C9.6705 6.67841 9.50495 6.5595 9.42528 6.36981C9.42216 6.36241 9.41929 6.35487 9.41668 6.34727L8.4042 3.42645C8.33599 3.22957 8.44022 3.01468 8.6371 2.94642C8.83388 2.87826 9.04887 2.98243 9.11713 3.17931L9.86144 5.3266L10.6058 3.17931C10.674 2.98248 10.8889 2.87831 11.0858 2.94642C11.2827 3.01468 11.3869 3.22957 11.3187 3.42645L10.3062 6.34727C10.3028 6.35713 10.299 6.36684 10.2947 6.3764C10.2104 6.56689 10.0488 6.68017 9.8618 6.68017Z" fill="#595959"/>
<path d="M17.5528 14.2744H5.67609C5.46774 14.2744 5.29883 14.1055 5.29883 13.8972C5.29883 13.6888 5.46774 13.5199 5.67609 13.5199H17.5528C17.7612 13.5199 17.9301 13.6888 17.9301 13.8972C17.9301 14.1055 17.7612 14.2744 17.5528 14.2744Z" fill="#595959"/>
<path d="M14.1334 16.6308H5.67609C5.46774 16.6308 5.29883 16.4619 5.29883 16.2535C5.29883 16.0452 5.46774 15.8763 5.67609 15.8763H14.1334C14.3418 15.8763 14.5107 16.0452 14.5107 16.2535C14.5107 16.4619 14.3418 16.6308 14.1334 16.6308Z" fill="#595959"/>
<path d="M10.5549 18.9872H5.67609C5.46774 18.9872 5.29883 18.8183 5.29883 18.6099C5.29883 18.4016 5.46774 18.2327 5.67609 18.2327H10.5549C10.7632 18.2327 10.9321 18.4016 10.9321 18.6099C10.9321 18.8183 10.7632 18.9872 10.5549 18.9872Z" fill="#595959"/>
<path fill-rule="evenodd" clip-rule="evenodd" d="M1.4751 7.63783V23.2556C1.4751 23.4224 1.61182 23.5578 1.77701 23.5578H14.9964C14.9039 23.4751 14.8113 23.3896 14.7216 23.2998C14.4325 23.009 14.179 22.6954 13.964 22.3661H12.3135H7.82495H3.02163C2.85503 22.3661 2.71972 22.2292 2.71972 22.0639V2.11832H1.4751V7.63783Z" fill="#E9E1E1"/>
<path fill-rule="evenodd" clip-rule="evenodd" d="M14.7216 15.0889C16.9873 12.8223 20.6585 12.8223 22.9241 15.0889C25.1884 17.3568 25.1884 21.0318 22.9241 23.2998C20.6585 25.5663 16.9873 25.5663 14.7216 23.2998C12.4574 21.0318 12.4574 17.3569 14.7216 15.0889Z" fill="#F392D2"/>
<path fill-rule="evenodd" clip-rule="evenodd" d="M20.9831 15.0889C23.2473 17.3568 23.2473 21.0318 20.9831 23.2997C20.244 24.0396 19.354 24.5385 18.4127 24.7951C18.2276 24.845 18.041 24.8863 17.853 24.9191C18.6833 25.0588 19.5377 25.0174 20.3536 24.7951C21.2949 24.5385 22.185 24.0396 22.9241 23.2997C23.9679 22.2549 24.5304 20.9092 24.613 19.5421C24.6258 19.3098 24.6258 19.0774 24.613 18.8465C24.5304 17.4795 23.9679 16.1338 22.9241 15.0889C22.101 14.265 21.0927 13.7404 20.0333 13.5152C19.3156 13.3627 18.575 13.3484 17.853 13.4695C18.9994 13.6634 20.0988 14.2036 20.9831 15.0889Z" fill="#EC72C2"/>
<path d="M21.125 20.25V19.375C21.125 19.317 21.102 19.2613 21.0609 19.2203C21.0199 19.1793 20.9643 19.1562 20.9062 19.1562C20.8482 19.1562 20.7926 19.1793 20.7516 19.2203C20.7105 19.2613 20.6875 19.317 20.6875 19.375V20.25C20.6875 20.308 20.6645 20.3637 20.6234 20.4047C20.5824 20.4457 20.5268 20.4688 20.4688 20.4688H16.5312C16.4732 20.4688 16.4176 20.4457 16.3766 20.4047C16.3355 20.3637 16.3125 20.308 16.3125 20.25V19.375C16.3125 19.317 16.2895 19.2613 16.2484 19.2203C16.2074 19.1793 16.1518 19.1562 16.0938 19.1562C16.0357 19.1562 15.9801 19.1793 15.9391 19.2203C15.898 19.2613 15.875 19.317 15.875 19.375V20.25C15.875 20.424 15.9441 20.591 16.0672 20.714C16.1903 20.8371 16.3572 20.9062 16.5312 20.9062H20.4688C20.6428 20.9062 20.8097 20.8371 20.9328 20.714C21.0559 20.591 21.125 20.424 21.125 20.25V20.25ZM19.7294 19.1081L18.6356 19.9831C18.597 20.0136 18.5492 20.0302 18.5 20.0302C18.4508 20.0302 18.403 20.0136 18.3644 19.9831L17.2706 19.1081C17.2308 19.0705 17.2065 19.0193 17.2026 18.9646C17.1987 18.91 17.2154 18.8558 17.2495 18.8129C17.2836 18.77 17.3326 18.7415 17.3867 18.733C17.4409 18.7244 17.4962 18.7365 17.5419 18.7669L18.2812 19.3575V16.3125C18.2812 16.2545 18.3043 16.1988 18.3453 16.1578C18.3863 16.1168 18.442 16.0938 18.5 16.0938C18.558 16.0938 18.6137 16.1168 18.6547 16.1578C18.6957 16.1988 18.7188 16.2545 18.7188 16.3125V19.3575L19.4581 18.7669C19.4802 18.7461 19.5063 18.7301 19.5348 18.7199C19.5633 18.7097 19.5937 18.7056 19.6239 18.7078C19.6541 18.7099 19.6835 18.7183 19.7103 18.7325C19.7371 18.7466 19.7607 18.7661 19.7795 18.7898C19.7984 18.8135 19.8121 18.8409 19.8198 18.8702C19.8275 18.8995 19.8291 18.9301 19.8244 18.96C19.8197 18.9899 19.8088 19.0185 19.7924 19.044C19.7761 19.0695 19.7546 19.0914 19.7294 19.1081V19.1081Z" fill="white"/>
</g>
<defs>
<clipPath id="clip0_53_119">
<rect width="25" height="25" fill="white"/>
</clipPath>
</defs>
</svg>
