<svg width="25" height="25" viewBox="0 0 25 25" fill="none" xmlns="http://www.w3.org/2000/svg">
<g clip-path="url(#clip0_91_13)">
<path d="M24.4179 14.5108L21.5434 10.2126C21.4922 9.30596 21.3025 8.41982 20.9788 7.57563C20.8702 7.29243 20.5982 7.10547 20.2949 7.10547H19.5249V4.85938C19.5249 4.45488 19.1969 4.12695 18.7924 4.12695H17.8438C17.8125 4.04658 17.7793 3.9668 17.7445 3.88774L18.4154 3.21685C18.7013 2.9311 18.7015 2.46699 18.4154 2.18105L16.3438 0.109473C16.0578 -0.176514 15.594 -0.176514 15.308 0.109473L14.6372 0.780322C14.5581 0.745459 14.4783 0.712353 14.3979 0.681006V-0.267578C14.3979 -0.67207 14.07 -1 13.6655 -1H10.7358C10.3313 -1 10.0034 -0.67207 10.0034 -0.267578V0.681055C9.923 0.712402 9.84322 0.745508 9.76416 0.780322L9.09327 0.109473C8.80728 -0.176514 8.34351 -0.176514 8.05747 0.109473L5.98589 2.18101C5.70005 2.46675 5.69986 2.93086 5.98589 3.2168L6.65679 3.8877C6.62198 3.96675 6.58887 4.04653 6.55757 4.1269H5.60889C5.2044 4.1269 4.87647 4.45483 4.87647 4.85933V7.10542H4.26612C3.9626 7.10542 3.69053 7.29263 3.58203 7.57612C1.82281 12.1743 4.18565 17.3474 8.8628 19.0071V23.2676C8.8628 23.6721 9.19073 24 9.59522 24H17.9448C18.3493 24 18.6773 23.6721 18.6773 23.2676V19.5078H20.8257C21.2302 19.5078 21.5581 19.1799 21.5581 18.7754V15.6504H23.8091C24.3933 15.6504 24.7431 14.9971 24.4179 14.5108V14.5108ZM6.34131 5.5918H7.08267C7.40967 5.5918 7.69707 5.37505 7.78692 5.0606C7.88223 4.72695 8.0167 4.40288 8.18658 4.09746C8.34556 3.81157 8.29566 3.45488 8.06436 3.22363L7.53965 2.69893L8.57544 1.66313L9.10015 2.18779C9.3314 2.41914 9.68809 2.46904 9.97398 2.31001C10.2794 2.14014 10.6035 2.00571 10.9371 1.9104C11.2515 1.82061 11.4683 1.53315 11.4683 1.20615V0.464844H12.9332V1.2062C12.9332 1.53325 13.15 1.82065 13.4645 1.91045C13.7981 2.00571 14.1221 2.14019 14.4275 2.31006C14.7134 2.46899 15.0701 2.41914 15.3014 2.18784L15.826 1.66318L16.8619 2.69897L16.3371 3.22363C16.1058 3.45493 16.0559 3.81157 16.2149 4.09746C16.3848 4.40293 16.5192 4.72695 16.6145 5.06055C16.7043 5.37495 16.9918 5.5918 17.3188 5.5918H18.0601V7.10547H15.0248C15.5405 5.23628 14.128 3.39453 12.2007 3.39453C10.2858 3.39453 8.8585 5.22144 9.37847 7.10547H6.34136V5.5918H6.34131ZM10.9618 7.10547C10.3494 6.13457 11.0483 4.85938 12.2007 4.85938C13.3526 4.85938 14.0528 6.13569 13.4389 7.10547H10.9618ZM20.8257 14.1855C20.4212 14.1855 20.0933 14.5135 20.0933 14.918V18.043H17.9449C17.5404 18.043 17.2125 18.3709 17.2125 18.7754V22.5352H10.3277V18.4722C10.3277 18.1444 10.11 17.8566 9.79463 17.7674C5.8959 16.6645 3.5774 12.5218 4.78824 8.57031H19.7732C19.9618 9.18535 20.0677 9.82339 20.0888 10.4735C20.1008 10.8423 20.1562 10.7062 22.4382 14.1855H20.8257Z" fill="#524E4E" stroke="#524E4E"/>
</g>
<defs>
<clipPath id="clip0_91_13">
<rect width="25" height="25" fill="white"/>
</clipPath>
</defs>
</svg>
