<svg width="40" height="42" viewBox="0 0 40 42" fill="none" xmlns="http://www.w3.org/2000/svg">
<path d="M22.0641 29.0055C22.0641 30.1917 21.1442 31.1534 20.0096 31.1534C18.8748 31.1534 17.9551 30.1917 17.9551 29.0055C17.9551 27.8193 18.8748 26.8576 20.0096 26.8576C21.1442 26.8576 22.0641 27.8193 22.0641 29.0055Z" fill="white" stroke="#524E4E" stroke-miterlimit="10" stroke-linecap="round" stroke-linejoin="round"/>
<path d="M9.91132 30.5731V35.7385V30.5731Z" fill="white"/>
<path d="M9.91132 30.5731V35.7385" stroke="#524E4E" stroke-miterlimit="10" stroke-linecap="round" stroke-linejoin="round"/>
<path d="M30.1078 35.7385V24.0473C30.1078 22.9912 29.289 22.1404 28.2837 22.1404H11.7354C10.728 22.1404 9.91133 22.9941 9.91133 24.0473V27.7324" fill="white"/>
<path d="M30.1078 35.7385V24.0473C30.1078 22.9912 29.289 22.1404 28.2837 22.1404H11.7354C10.728 22.1404 9.91133 22.9941 9.91133 24.0473V27.7324" stroke="#524E4E" stroke-miterlimit="10" stroke-linecap="round" stroke-linejoin="round"/>
<path d="M31.8797 38.0192C32.2678 37.5936 32.5062 37.0173 32.5062 36.3828C32.5062 36.0269 32.2303 35.7385 31.8899 35.7385H8.12918C7.78883 35.7385 7.51295 36.0269 7.51295 36.3828C7.51295 37.0173 7.75122 37.5936 8.13937 38.0192" fill="white"/>
<path d="M31.8797 38.0192C32.2678 37.5936 32.5062 37.0173 32.5062 36.3828C32.5062 36.0269 32.2303 35.7385 31.8899 35.7385H8.12918C7.78883 35.7385 7.51295 36.0269 7.51295 36.3828C7.51295 37.0173 7.75122 37.5936 8.13937 38.0192" stroke="#524E4E" stroke-miterlimit="10" stroke-linecap="round" stroke-linejoin="round"/>
<path d="M37.6627 38.0192H2.33739C1.59869 38.0192 1 38.6451 1 39.4173C1 40.1894 1.59869 40.8154 2.33739 40.8154H37.6627C38.4013 40.8154 39 40.1894 39 39.4173C39 38.6451 38.4013 38.0192 37.6627 38.0192Z" fill="white" stroke="#524E4E" stroke-miterlimit="10" stroke-linecap="round" stroke-linejoin="round"/>
<path d="M27.3535 5.06718C27.3535 5.06718 27.353 5.06718 27.353 4.65162C27.353 2.64619 25.7971 1.02069 23.8788 1.02077C22.1408 1.02085 18.5898 1.02093 17.4224 1.02093C16.8779 1.02101 16.3782 1.33633 16.1245 1.84005L16.1246 1.85638C16.1246 2.41183 15.6987 2.77374 15.1737 2.68815C13.826 2.46852 12.6646 3.5521 12.6646 4.91929V9.94543C12.7257 9.93495 12.7884 9.9295 12.8523 9.9295H13.6657C14.2792 9.9295 14.8086 9.44059 14.8443 8.80036C14.8481 8.7323 14.8465 7.50963 14.8465 7.51764C14.8465 6.80317 15.4007 6.22379 16.0841 6.22379H16.3505C17.5325 6.22379 18.1092 6.89381 20.0707 6.89381C20.6513 6.89381 21.2291 6.82391 21.7928 6.68603V6.68507C22.6312 6.48105 22.9466 6.22379 23.7907 6.22379H23.935C24.6185 6.22379 25.1726 6.80317 25.1726 7.51764C25.1726 8.82101 25.1714 8.74727 25.1755 8.81173C25.216 9.44724 25.7439 9.9295 26.3531 9.9295H27.1668C27.2307 9.9295 27.2934 9.93495 27.3546 9.94535C27.3546 9.94535 27.3535 9.94535 27.3535 7.93064" fill="white"/>
<path d="M27.3535 5.06718C27.3535 5.06718 27.353 5.06718 27.353 4.65162C27.353 2.64619 25.7971 1.02069 23.8788 1.02077C22.1408 1.02085 18.5898 1.02093 17.4224 1.02093C16.8779 1.02101 16.3782 1.33633 16.1245 1.84005L16.1246 1.85638C16.1246 2.41183 15.6987 2.77374 15.1737 2.68815C13.826 2.46852 12.6646 3.5521 12.6646 4.91929V9.94543C12.7257 9.93495 12.7884 9.9295 12.8523 9.9295H13.6657C14.2792 9.9295 14.8086 9.44059 14.8443 8.80036C14.8481 8.7323 14.8465 7.50963 14.8465 7.51764C14.8465 6.80317 15.4007 6.22379 16.0841 6.22379H16.3505C17.5325 6.22379 18.1092 6.89381 20.0707 6.89381C20.6513 6.89381 21.2291 6.82391 21.7928 6.68603V6.68507C22.6312 6.48105 22.9466 6.22379 23.7907 6.22379H23.935C24.6185 6.22379 25.1726 6.80317 25.1726 7.51764C25.1726 8.82101 25.1714 8.74727 25.1755 8.81173C25.216 9.44724 25.7439 9.9295 26.3531 9.9295H27.1668C27.2307 9.9295 27.2934 9.93495 27.3546 9.94535C27.3546 9.94535 27.3535 9.94535 27.3535 7.93064" stroke="#524E4E" stroke-miterlimit="10" stroke-linecap="round" stroke-linejoin="round"/>
<path d="M13.6657 9.92938H13.6322L13.6333 13.6802C13.6928 16.5781 15.5244 18.7678 17.9376 19.8045C17.9377 19.8044 17.9379 19.8043 17.938 19.8042C18.556 20.0698 19.2453 20.2445 20.0095 20.2534C22.6161 20.2231 26.3014 17.7832 26.3857 13.6802L26.3869 9.92938H26.3531" fill="white"/>
<path d="M13.6657 9.92938H13.6322L13.6333 13.6802C13.6928 16.5781 15.5244 18.7678 17.9376 19.8045C17.9377 19.8044 17.9379 19.8043 17.938 19.8042C18.556 20.0698 19.2453 20.2445 20.0095 20.2534C22.6161 20.2231 26.3014 17.7832 26.3857 13.6802L26.3869 9.92938H26.3531" stroke="#524E4E" stroke-miterlimit="10" stroke-linecap="round" stroke-linejoin="round"/>
<path d="M12.8524 9.92947C12.2149 9.92947 11.6981 10.4698 11.6981 11.1362V12.4735C11.6981 13.1401 12.2149 13.6804 12.8524 13.6804H13.6333V13.6803" fill="white"/>
<path d="M12.8524 9.92947C12.2149 9.92947 11.6981 10.4698 11.6981 11.1362V12.4735C11.6981 13.1401 12.2149 13.6804 12.8524 13.6804H13.6333V13.6803" stroke="#524E4E" stroke-miterlimit="10" stroke-linecap="round" stroke-linejoin="round"/>
<path d="M26.3857 13.6803V13.6804H27.1668C27.8042 13.6804 28.3211 13.1401 28.3211 12.4736V11.1363C28.3211 10.4698 27.8042 9.92947 27.1668 9.92947" fill="white"/>
<path d="M26.3857 13.6803V13.6804H27.1668C27.8042 13.6804 28.3211 13.1401 28.3211 12.4736V11.1363C28.3211 10.4698 27.8042 9.92947 27.1668 9.92947" stroke="#524E4E" stroke-miterlimit="10" stroke-linecap="round" stroke-linejoin="round"/>
<path d="M34.3824 38.0192L35.9816 36.4098C36.7134 35.6735 36.9884 34.5705 36.6938 33.5543L34.7162 26.7356C34.1715 24.8575 32.6544 23.4651 30.8024 23.144L29.7879 22.9679" fill="white"/>
<path d="M34.3824 38.0192L35.9816 36.4098C36.7134 35.6735 36.9884 34.5705 36.6938 33.5543L34.7162 26.7356C34.1715 24.8575 32.6544 23.4651 30.8024 23.144L29.7879 22.9679" stroke="#524E4E" stroke-miterlimit="10" stroke-linecap="round" stroke-linejoin="round"/>
<path d="M10.2315 22.9679L9.21671 23.1439C7.36465 23.4651 5.84758 24.8575 5.30281 26.7356L3.32537 33.5543C3.03066 34.5704 3.30576 35.6735 4.03757 36.4098L5.63674 38.0192" fill="white"/>
<path d="M10.2315 22.9679L9.21671 23.1439C7.36465 23.4651 5.84758 24.8575 5.30281 26.7356L3.32537 33.5543C3.03066 34.5704 3.30576 35.6735 4.03757 36.4098L5.63674 38.0192" stroke="#524E4E" stroke-miterlimit="10" stroke-linecap="round" stroke-linejoin="round"/>
<path d="M25.0282 22.1403C24.2943 21.9756 23.7426 21.3308 23.6731 20.5429L23.5356 18.9826" fill="white"/>
<path d="M25.0282 22.1403C24.2943 21.9756 23.7426 21.3308 23.6731 20.5429L23.5356 18.9826" stroke="#524E4E" stroke-miterlimit="10" stroke-linecap="round" stroke-linejoin="round"/>
<path d="M16.483 18.9872L16.346 20.5431C16.2766 21.331 15.7248 21.9758 14.9909 22.1404" fill="white"/>
<path d="M16.483 18.9872L16.346 20.5431C16.2766 21.331 15.7248 21.9758 14.9909 22.1404" stroke="#524E4E" stroke-miterlimit="10" stroke-linecap="round" stroke-linejoin="round"/>
</svg>
