<svg width="25" height="25" viewBox="0 0 25 25" fill="none" xmlns="http://www.w3.org/2000/svg">
<path d="M24.3257 10.8738C24.3251 10.8732 24.3245 10.8727 24.324 10.8721L14.126 0.674438C13.6913 0.239563 13.1133 0 12.4986 0C11.8839 0 11.3059 0.239372 10.8711 0.674248L0.678386 10.8667C0.674952 10.8702 0.671519 10.8738 0.668086 10.8772C-0.224553 11.775 -0.223027 13.2317 0.672473 14.1272C1.0816 14.5365 1.62195 14.7736 2.19969 14.7984C2.22315 14.8006 2.2468 14.8018 2.27064 14.8018H2.6771V22.3066C2.6771 23.7917 3.8854 25 5.37084 25H9.36064C9.76499 25 10.0931 24.6721 10.0931 24.2676V18.3838C10.0931 17.7061 10.6443 17.1549 11.322 17.1549H13.6752C14.3529 17.1549 14.9042 17.7061 14.9042 18.3838V24.2676C14.9042 24.6721 15.232 25 15.6366 25H19.6264C21.1118 25 22.3201 23.7917 22.3201 22.3066V14.8018H22.697C23.3116 14.8018 23.8895 14.5624 24.3245 14.1275C25.221 13.2305 25.2214 11.7714 24.3257 10.8738V10.8738Z" fill="#524E4E"/>
</svg>
