<svg width="32" height="32" viewBox="0 0 32 32" fill="none" xmlns="http://www.w3.org/2000/svg">
<g clip-path="url(#clip0_6_43)">
<path d="M21.696 9.1664L19.9961 8.16961C19.8972 8.11158 19.7948 8.05736 19.6922 8.00859C19.0875 7.72093 18.4011 7.6716 17.7594 7.86971C17.1196 8.06718 16.5794 8.49342 16.2382 9.06985L16.0286 9.42405L14.5069 8.53172C13.9981 8.2334 13.4036 8.15225 12.833 8.30324C12.265 8.45349 11.7909 8.81546 11.4974 9.32272L10.8999 10.3292C10.5828 10.2098 10.271 10.1723 9.96902 10.2175C9.37576 10.3064 8.86809 10.7044 8.4599 11.4006L8.01916 12.1522L5.93803 10.9318C5.14093 10.4644 4.24263 10.3981 3.4735 10.7499C2.75155 11.0801 2.23855 11.7224 2.10091 12.4683C1.89345 13.5923 2.39539 14.6915 3.37871 15.2681L11.1672 19.8594C10.131 20.2824 9.22957 21.1934 9.01914 22.1545C9.00597 22.1872 8.99648 22.2218 8.99118 22.258C8.891 22.9471 9.05086 23.5762 9.45347 24.0772C9.96006 24.7078 10.805 25.083 11.8968 25.1626C11.9016 25.1629 11.9064 25.1632 11.9112 25.1634L21.2104 25.5405C21.3128 25.5447 21.4114 25.5138 21.4917 25.4557C21.5412 25.4199 21.5837 25.3738 21.6157 25.3192L27.405 15.4466C27.4899 15.3018 27.4869 15.1217 27.3971 14.9798L26.9083 14.2067C25.6038 12.1439 23.8015 10.401 21.696 9.1664ZM26.1498 14.6863L26.4926 15.2284L20.9778 24.633L11.955 24.267C11.1216 24.2052 10.4986 23.9452 10.153 23.5152C9.92659 23.2333 9.83056 22.8893 9.86689 22.4913C9.87304 22.4707 9.87778 22.4493 9.88098 22.4274C10.0163 21.4967 11.3101 20.5011 12.3634 20.5107L14.8633 20.8604C14.9828 20.8771 15.0978 20.8451 15.1884 20.7796C15.2839 20.7105 15.3522 20.6041 15.3698 20.4782C15.4042 20.2328 15.2331 20.006 14.9877 19.9717L12.5451 19.63L3.83355 14.4945C3.03909 14.0287 2.87353 13.2265 2.98336 12.6311C3.06662 12.1796 3.39737 11.7716 3.84675 11.5659C4.35344 11.3342 4.9349 11.3839 5.4841 11.7059L12.0471 15.5545C12.2055 15.6474 12.3975 15.6321 12.5373 15.5309C12.5861 15.4956 12.6287 15.4498 12.6611 15.3944C12.7865 15.1806 12.7148 14.9057 12.501 14.7804L8.7932 12.6061L9.23394 11.8545C9.49812 11.4039 9.79017 11.1517 10.1019 11.105C10.3232 11.0718 10.5747 11.1367 10.8494 11.2978C10.8494 11.2978 10.8495 11.2978 10.8495 11.2978L14.72 13.5675C14.8784 13.6604 15.0703 13.6451 15.2101 13.544C15.259 13.5086 15.3015 13.4628 15.334 13.4074C15.4593 13.1936 15.3877 12.9187 15.1739 12.7934L11.6925 10.7519L12.2704 9.77851C12.2713 9.7769 12.2722 9.77528 12.2732 9.77364C12.4461 9.47379 12.7264 9.25969 13.0624 9.17076C13.4002 9.08141 13.752 9.12938 14.0529 9.30582L18.6527 12.0031C18.8111 12.096 19.0031 12.0807 19.1429 11.9796C19.1917 11.9442 19.2343 11.8984 19.2667 11.843C19.3921 11.6293 19.3204 11.3544 19.1066 11.229L16.8027 9.87803L17.0105 9.52688C17.4845 8.72596 18.4716 8.42164 19.3068 8.81899C19.3863 8.85678 19.4655 8.89873 19.5421 8.94368L21.2421 9.9405C23.2245 11.103 24.9215 12.7441 26.1498 14.6863Z" fill="black"/>
<path d="M24.3904 15.8694L24.1026 16.3591C23.977 16.5728 24.0484 16.8477 24.2621 16.9733C24.4205 17.0664 24.6127 17.0512 24.7526 16.9499C24.8014 16.9146 24.8438 16.8689 24.8762 16.8137L25.164 16.3239C25.2896 16.1103 25.2182 15.8353 25.0045 15.7098C24.7908 15.5842 24.5159 15.6558 24.3904 15.8694Z" fill="black"/>
<path d="M23.2365 17.8545L20.1632 23.0853C20.0377 23.299 20.1091 23.5739 20.3227 23.6995C20.4812 23.7926 20.6733 23.7773 20.8133 23.6761C20.862 23.6408 20.9045 23.595 20.9369 23.5399L24.0102 18.3091C24.1357 18.0955 24.0643 17.8205 23.8506 17.695C23.6369 17.5695 23.3619 17.641 23.2365 17.8545Z" fill="black"/>
</g>
<defs>
<clipPath id="clip0_6_43">
<rect width="22.5248" height="22.5248" fill="white" transform="translate(0 13.2021) rotate(-35.8819)"/>
</clipPath>
</defs>
</svg>
