<svg width="25" height="25" viewBox="0 0 25 25" fill="none" xmlns="http://www.w3.org/2000/svg">
<g clip-path="url(#clip0_91_2)">
<path d="M14.9031 8.4039L14.7321 9.92308C14.7221 10.0162 14.755 10.1088 14.8214 10.1749C14.8873 10.2438 14.9822 10.277 15.0768 10.2641L16.5991 10.0909C16.6294 10.0874 16.6558 10.0731 16.6848 10.0668L14.9263 8.30835C14.9167 8.33972 14.909 8.37163 14.9031 8.4039V8.4039Z" fill="#524E4E"/>
<path d="M15.4657 7.58914L20.3294 2.72545L22.2822 4.67819L17.4185 9.54188L15.4657 7.58914Z" fill="#524E4E"/>
<path d="M20.9583 2.08865L21.6198 1.42713L23.5716 3.37891L22.9101 4.04044L20.9583 2.08865Z" fill="#524E4E"/>
<path d="M24.8601 2.09194C24.9491 2.00599 24.9996 1.8876 24.9998 1.76384C25 1.63815 24.9496 1.51767 24.8601 1.42946L23.5712 0.140165C23.4834 0.0505629 23.3632 8.2016e-05 23.2378 0C23.1148 0.000451088 22.9972 0.0503168 22.9114 0.138402L22.2543 0.794202L24.206 2.74594L24.8601 2.09194Z" fill="#524E4E"/>
<path d="M2.67863 18.7497H3.57145C3.81799 18.7497 4.01787 18.5498 4.01787 18.3033V0.446413C4.01791 0.199873 3.81803 0 3.57145 0H2.67863C1.19992 0.00147629 0.0015831 1.19981 0.000106812 2.67852V19.9613C0.677067 19.1909 1.65306 18.7494 2.67863 18.7497V18.7497Z" fill="#524E4E"/>
<path d="M2.80821 24.9996H24.5534C24.7999 24.9996 24.9998 24.7997 24.9998 24.5532V6.69632C24.9998 6.44978 24.7999 6.24991 24.5534 6.24991H21.9642L17.7258 10.4909C17.4476 10.7637 17.0862 10.9358 16.6991 10.9797C15.1924 11.1489 15.1786 11.1605 15.0482 11.1605H8.48224V16.0712H19.1964V13.8391C19.1964 13.5925 19.3962 13.3926 19.6428 13.3926C19.8893 13.3926 20.0892 13.5925 20.0892 13.8391V20.5354C20.0892 21.0285 19.6894 21.4282 19.1964 21.4282H10.2679C10.0214 21.4282 9.82148 21.2283 9.82148 20.9818C9.82148 20.7353 10.0214 20.5354 10.2679 20.5354H13.3928V16.964H8.48224V23.2139C8.48224 23.4604 8.28237 23.6603 8.03583 23.6603C7.78929 23.6603 7.58942 23.4604 7.58942 23.2139V11.1605H6.25014C6.0036 11.1605 5.80372 10.9607 5.80372 10.7141C5.80372 10.4676 6.0036 10.2677 6.25014 10.2677H13.888C13.8466 10.1246 13.8325 9.97495 13.8465 9.82663L14.0157 8.30568C14.0592 7.91036 14.238 7.54228 14.5219 7.26375L15.5357 6.24991H4.91086V18.3033C4.91086 19.0429 4.31124 19.6426 3.57158 19.6426H2.67875C1.20004 19.644 0.00170517 20.8424 0.000228882 22.3211V22.4193C0.0998784 23.8899 1.33447 25.0244 2.80821 24.9996V24.9996Z" fill="#524E4E"/>
<path d="M14.2857 16.964H19.1963V20.5354H14.2857V16.964Z" fill="#524E4E"/>
</g>
<defs>
<clipPath id="clip0_91_2">
<rect width="25" height="25" fill="white"/>
</clipPath>
</defs>
</svg>
