<svg width="25" height="25" viewBox="0 0 25 25" fill="none" xmlns="http://www.w3.org/2000/svg">
<path d="M20.863 8.06631L16.9337 4.13708L18.7009 2.36993C19.1941 1.87672 19.9937 1.87672 20.487 2.36993L22.6301 4.51309C23.1233 5.00626 23.1233 5.80595 22.6301 6.29916L20.863 8.06631Z" stroke="#524E4E" stroke-width="2" stroke-miterlimit="10" stroke-linecap="round" stroke-linejoin="round"/>
<path d="M4.9939 20.0061L6.95851 21.9707L20.863 8.06621L18.8984 6.10164" stroke="#524E4E" stroke-width="2" stroke-miterlimit="10" stroke-linecap="round" stroke-linejoin="round"/>
<path d="M18.8984 6.10169L16.9338 4.13707L3.02927 18.0416L4.99388 20.0062" stroke="#524E4E" stroke-width="2" stroke-miterlimit="10" stroke-linecap="round" stroke-linejoin="round"/>
<path d="M6.66745 10.1079L8.81522 12.2556L11.243 9.82776L9.09528 7.67999C9.66021 6.18846 9.34215 4.4388 8.14118 3.23778C6.88499 1.98164 5.02863 1.69135 3.49511 2.36708L5.94467 4.81664L3.80405 6.95726L1.3545 4.5077C0.678801 6.04122 0.969049 7.89749 2.22524 9.15372C3.42625 10.3547 5.17588 10.6727 6.66745 10.1079Z" stroke="#524E4E" stroke-width="2" stroke-miterlimit="10" stroke-linecap="round" stroke-linejoin="round"/>
<path d="M22.633 21.5049C23.3087 19.9714 23.0185 18.115 21.7623 16.8589C20.5612 15.6579 18.8117 15.3398 17.3201 15.9047L15.1723 13.757L12.7444 16.1848L14.8922 18.3326C14.3273 19.8241 14.6453 21.5738 15.8464 22.7748C17.1025 24.031 18.9589 24.3212 20.4924 23.6455L18.0428 21.1959L20.1834 19.0553L22.633 21.5049Z" stroke="#524E4E" stroke-width="2" stroke-miterlimit="10" stroke-linecap="round" stroke-linejoin="round"/>
<path d="M6.95849 21.9707L3.02926 18.0416L2.23659 20.4333L4.56666 22.7635L6.95849 21.9707Z" stroke="#524E4E" stroke-width="2" stroke-miterlimit="10" stroke-linecap="round" stroke-linejoin="round"/>
<path d="M4.56667 22.7634L2.23659 20.4334L1.08159 23.9185L4.56667 22.7634Z" stroke="#524E4E" stroke-width="2" stroke-miterlimit="10" stroke-linecap="round" stroke-linejoin="round"/>
<path d="M18.8035 6.19656L12.5459 12.4543" stroke="#524E4E" stroke-width="2" stroke-miterlimit="10" stroke-linecap="round" stroke-linejoin="round"/>
<path d="M9.68712 15.3129L5.20372 19.7963" stroke="#524E4E" stroke-width="2" stroke-miterlimit="10" stroke-linecap="round" stroke-linejoin="round"/>
</svg>
