<svg width="139" height="139" viewBox="0 0 139 139" fill="none" xmlns="http://www.w3.org/2000/svg">
<g clip-path="url(#clip0_24_6)">
<circle cx="69.5" cy="69.5" r="69.5" fill="#EC72C2"/>
<g filter="url(#filter0_d_24_6)">
<path d="M41.1605 88V51.6364H55.7202C58.3954 51.6364 60.6267 52.0329 62.4141 52.826C64.2015 53.6191 65.545 54.7199 66.4446 56.1286C67.3442 57.5253 67.794 59.1352 67.794 60.9581C67.794 62.3786 67.5099 63.6274 66.9418 64.7045C66.3736 65.7699 65.5923 66.6458 64.598 67.3324C63.6155 68.0071 62.491 68.4865 61.2244 68.7706V69.1257C62.6094 69.1849 63.9055 69.5755 65.1129 70.2976C66.3322 71.0196 67.3205 72.0317 68.0781 73.3338C68.8357 74.6241 69.2145 76.1629 69.2145 77.9503C69.2145 79.8797 68.7351 81.602 67.7763 83.1172C66.8293 84.6205 65.4266 85.8101 63.5682 86.6861C61.7098 87.562 59.4193 88 56.6967 88H41.1605ZM48.8487 81.7145H55.1165C57.259 81.7145 58.8215 81.3061 59.804 80.4893C60.7865 79.6607 61.2777 78.5599 61.2777 77.1868C61.2777 76.1806 61.035 75.2929 60.5497 74.5234C60.0644 73.754 59.3719 73.1503 58.4723 72.7124C57.5845 72.2744 56.5251 72.0554 55.294 72.0554H48.8487V81.7145ZM48.8487 66.853H54.5483C55.6018 66.853 56.5369 66.6695 57.3537 66.3026C58.1823 65.9238 58.8333 65.3911 59.3068 64.7045C59.7921 64.018 60.0348 63.1953 60.0348 62.2365C60.0348 60.9226 59.5672 59.8632 58.6321 59.0582C57.7088 58.2533 56.3949 57.8509 54.6903 57.8509H48.8487V66.853ZM91.7768 51.6364H99.3762V76.9915C99.3762 79.3352 98.8495 81.3712 97.796 83.0994C96.7543 84.8277 95.3043 86.1593 93.4458 87.0945C91.5874 88.0296 89.4271 88.4972 86.965 88.4972C84.7752 88.4972 82.7865 88.1125 80.9991 87.343C79.2235 86.5618 77.8149 85.3781 76.7733 83.7919C75.7316 82.1939 75.2167 80.1875 75.2285 77.7727H82.8812C82.9049 78.7315 83.1002 79.5542 83.4672 80.2408C83.8459 80.9155 84.3609 81.4363 85.0119 81.8033C85.6748 82.1584 86.456 82.3359 87.3556 82.3359C88.3026 82.3359 89.1016 82.1347 89.7527 81.7322C90.4155 81.3179 90.9186 80.7143 91.2619 79.9212C91.6052 79.1281 91.7768 78.1515 91.7768 76.9915V51.6364Z" fill="white"/>
</g>
</g>
<defs>
<filter id="filter0_d_24_6" x="30.1605" y="39.6364" width="86.2157" height="64.8608" filterUnits="userSpaceOnUse" color-interpolation-filters="sRGB">
<feFlood flood-opacity="0" result="BackgroundImageFix"/>
<feColorMatrix in="SourceAlpha" type="matrix" values="0 0 0 0 0 0 0 0 0 0 0 0 0 0 0 0 0 0 127 0" result="hardAlpha"/>
<feOffset dx="3" dy="2"/>
<feGaussianBlur stdDeviation="7"/>
<feComposite in2="hardAlpha" operator="out"/>
<feColorMatrix type="matrix" values="0 0 0 0 0 0 0 0 0 0 0 0 0 0 0 0 0 0 0.45 0"/>
<feBlend mode="normal" in2="BackgroundImageFix" result="effect1_dropShadow_24_6"/>
<feBlend mode="normal" in="SourceGraphic" in2="effect1_dropShadow_24_6" result="shape"/>
</filter>
<clipPath id="clip0_24_6">
<rect width="139" height="139" fill="white"/>
</clipPath>
</defs>
</svg>
